<svg width="25" height="25" viewBox="0 0 25 25" fill="none" xmlns="http://www.w3.org/2000/svg">
<g clip-path="url(#clip0_1356_304)">
<path d="M12.5007 22.9167C6.74753 22.9167 2.08398 18.2532 2.08398 12.5C2.08398 6.74692 6.74753 2.08337 12.5007 2.08337C18.2538 2.08337 22.9173 6.74692 22.9173 12.5C22.9173 18.2532 18.2538 22.9167 12.5007 22.9167ZM12.5007 20.8334C14.7108 20.8334 16.8304 19.9554 18.3932 18.3926C19.956 16.8298 20.834 14.7102 20.834 12.5C20.834 10.2899 19.956 8.17029 18.3932 6.60748C16.8304 5.04468 14.7108 4.16671 12.5007 4.16671C10.2905 4.16671 8.1709 5.04468 6.6081 6.60748C5.04529 8.17029 4.16732 10.2899 4.16732 12.5C4.16732 14.7102 5.04529 16.8298 6.6081 18.3926C8.1709 19.9554 10.2905 20.8334 12.5007 20.8334ZM11.4621 16.6667L7.04232 12.2469L8.51523 10.774L11.4621 13.7209L17.3538 7.82817L18.8277 9.30108L11.4621 16.6667Z" fill="#7E00A7"/>
</g>
<defs>
<clipPath id="clip0_1356_304">
<rect width="25" height="25" fill="white"/>
</clipPath>
</defs>
</svg>
