<svg width="17" height="17" viewBox="0 0 17 17" fill="none" xmlns="http://www.w3.org/2000/svg">
<path d="M7.91234 11.5013C7.93219 11.6321 7.99744 11.7578 8.10834 11.8785C8.21834 11.9989 8.34913 12.0593 8.5 12.0593C8.85169 12.0593 9.04739 11.8731 9.0874 11.5013L10.2627 2.47074C10.2829 2.31061 10.293 2.08439 10.293 1.7929C10.293 1.34074 10.1376 0.929189 9.82597 0.557082C9.51462 0.185605 9.07255 0 8.49997 0C7.90669 0 7.46014 0.190652 7.15893 0.571957C6.85767 0.944031 6.70703 1.35087 6.70703 1.79294C6.70703 2.06427 6.71649 2.29019 6.73665 2.47078L7.91234 11.5013Z" fill="#7E00A7"/>
<path d="M9.79694 13.8811C9.45534 13.5395 9.02307 13.3684 8.50088 13.3684C7.98883 13.3684 7.55655 13.5448 7.2049 13.8962C6.85325 14.2479 6.67773 14.6745 6.67773 15.1768C6.67773 15.6589 6.85325 16.0859 7.2049 16.4577C7.55655 16.8194 7.98886 17 8.50088 17C9.01298 17 9.44465 16.8245 9.79694 16.4725C10.148 16.1214 10.3241 15.6892 10.3241 15.1768C10.3241 14.6644 10.148 14.2327 9.79694 13.8811Z" fill="#7E00A7"/>
</svg>
