<svg width="10" height="12" viewBox="0 0 10 12" fill="none" xmlns="http://www.w3.org/2000/svg">
<path fill-rule="evenodd" clip-rule="evenodd" d="M5 0.86747C3.55025 0.86747 2.375 2.2268 2.375 3.90361V5.06232C2.5665 5.06024 2.77425 5.06024 3 5.06024H7C8.4142 5.06024 9.1213 5.06024 9.56065 5.5684C10 6.07657 10 6.89442 10 8.53012C10 10.1658 10 10.9837 9.56065 11.4918C9.1213 12 8.4142 12 7 12H3C1.58579 12 0.87868 12 0.43934 11.4918C0 10.9837 0 10.1658 0 8.53012C0 6.89442 0 6.07657 0.43934 5.5684C0.704655 5.26149 1.06763 5.13999 1.625 5.09182V3.90361C1.625 1.74771 3.13604 0 5 0C6.57315 0 7.894 1.24447 8.26865 2.92803C8.32025 3.16002 8.19955 3.39648 7.99895 3.45619C7.7984 3.5159 7.59395 3.37624 7.5423 3.14425C7.2509 1.83465 6.22265 0.86747 5 0.86747ZM5.375 7.37349C5.375 7.13396 5.2071 6.93976 5 6.93976C4.7929 6.93976 4.625 7.13396 4.625 7.37349V9.68675C4.625 9.92628 4.7929 10.1205 5 10.1205C5.2071 10.1205 5.375 9.92628 5.375 9.68675V7.37349Z" fill="#7E00A7"/>
</svg>
